<?xml version="1.0" encoding="UTF-8" standalone="no"?>
<!-- Created with Inkscape (http://www.inkscape.org/) -->

<svg
   width="135mm"
   height="110mm"
   viewBox="0 0 135 109.99999"
   version="1.1"
   id="svg5"
   xml:space="preserve"
   inkscape:version="1.2.1 (9c6d41e410, 2022-07-14)"
   sodipodi:docname="queen-didos-plan-trapezium-slice.svg"
   xmlns:inkscape="http://www.inkscape.org/namespaces/inkscape"
   xmlns:sodipodi="http://sodipodi.sourceforge.net/DTD/sodipodi-0.dtd"
   xmlns="http://www.w3.org/2000/svg"
   xmlns:svg="http://www.w3.org/2000/svg"><sodipodi:namedview
     id="namedview7"
     pagecolor="#ffffff"
     bordercolor="#000000"
     borderopacity="0.25"
     inkscape:showpageshadow="2"
     inkscape:pageopacity="0.0"
     inkscape:pagecheckerboard="0"
     inkscape:deskcolor="#d1d1d1"
     inkscape:document-units="mm"
     showgrid="false"
     inkscape:zoom="0.8699935"
     inkscape:cx="256.32375"
     inkscape:cy="128.16188"
     inkscape:window-width="1241"
     inkscape:window-height="1043"
     inkscape:window-x="32"
     inkscape:window-y="11"
     inkscape:window-maximized="0"
     inkscape:current-layer="layer1"
     showguides="false" /><defs
     id="defs2" /><g
     inkscape:label="Layer 1"
     inkscape:groupmode="layer"
     id="layer1"
     transform="translate(-352.39128,76.270317)"><g
       id="g592"
       transform="translate(1.1957752,2.6298496)"><g
         id="g2144"
         transform="rotate(-90,446.1213,-28.303916)"><path
           id="rect707"
           style="fill:#c8beb7;stroke:#000000;stroke-width:0.499999;paint-order:fill stroke markers;stop-color:#000000"
           d="m 392.26443,-49.663825 v -28.35383 l -2.66703,-0.57309 v 29.50001 z" /><path
           id="path1884"
           style="fill:#c8beb7;stroke:#000000;stroke-width:0.499999;paint-order:fill stroke markers;stop-color:#000000"
           d="m 394.93093,-50.236925 v -27.20764 l -2.6665,-0.57309 v 28.35383 z" /><path
           id="path1887"
           style="fill:#c8beb7;stroke:#000000;stroke-width:0.499999;paint-order:fill stroke markers;stop-color:#000000"
           d="m 397.59743,-50.810015 v -26.06146 l -2.6665,-0.57309 v 27.20764 z" /><path
           id="path1890"
           style="fill:#c8beb7;stroke:#000000;stroke-width:0.499999;paint-order:fill stroke markers;stop-color:#000000"
           d="m 400.26394,-51.382585 v -24.91631 l -2.66651,-0.57258 v 26.06146 z" /><path
           id="path1893"
           style="fill:#c8beb7;stroke:#000000;stroke-width:0.499999;paint-order:fill stroke markers;stop-color:#000000"
           d="m 402.93096,-51.955675 v -23.77013 l -2.66702,-0.57309 v 24.91631 z" /><path
           id="path1896"
           style="fill:#c8beb7;stroke:#000000;stroke-width:0.499999;paint-order:fill stroke markers;stop-color:#000000"
           d="m 405.59746,-52.528775 v -22.62394 l -2.6665,-0.57309 v 23.77013 z" /><path
           id="path1899"
           style="fill:#c8beb7;stroke:#000000;stroke-width:0.499999;paint-order:fill stroke markers;stop-color:#000000"
           d="m 408.26397,-53.101345 v -21.47879 l -2.66651,-0.57258 v 22.62394 z" /><path
           id="path1902"
           style="fill:#c8beb7;stroke:#000000;stroke-width:0.499999;paint-order:fill stroke markers;stop-color:#000000"
           d="m 410.93099,-53.674435 v -20.33261 l -2.66702,-0.57309 v 21.47879 z" /><path
           id="path1905"
           style="fill:#c8beb7;stroke:#000000;stroke-width:0.499999;paint-order:fill stroke markers;stop-color:#000000"
           d="m 413.59749,-54.247015 v -19.18746 l -2.6665,-0.57257 v 20.33261 z" /><path
           id="path1908"
           style="fill:#c8beb7;stroke:#000000;stroke-width:0.499999;paint-order:fill stroke markers;stop-color:#000000"
           d="m 416.26399,-54.820105 v -18.04127 l -2.6665,-0.5731 v 19.18746 z" /><path
           id="path1911"
           style="fill:#c8beb7;stroke:#000000;stroke-width:0.499999;paint-order:fill stroke markers;stop-color:#000000"
           d="m 418.93102,-55.393195 v -16.89509 l -2.66703,-0.57309 v 18.04127 z" /><path
           id="path1914"
           style="fill:#c8beb7;stroke:#000000;stroke-width:0.499999;paint-order:fill stroke markers;stop-color:#000000"
           d="m 421.59752,-71.715715 -2.6665,-0.57257 v 16.89509 l 2.6665,-0.57257 z" /></g><g
         id="g2158"
         transform="rotate(-90,448.44157,-30.624194)"><path
           id="path1917"
           style="fill:#c8beb7;stroke:#000000;stroke-width:0.499999;paint-order:fill stroke markers;stop-color:#000000"
           d="m 392.26443,-11.170585 v -28.35383 l -2.66703,-0.57309 v 29.50001 z" /><path
           id="path1919"
           style="fill:#c8beb7;stroke:#000000;stroke-width:0.499999;paint-order:fill stroke markers;stop-color:#000000"
           d="m 394.93093,-11.743685 v -27.20764 l -2.6665,-0.57309 v 28.35383 z" /><path
           id="path1921"
           style="fill:#c8beb7;stroke:#000000;stroke-width:0.499999;paint-order:fill stroke markers;stop-color:#000000"
           d="m 397.59743,-12.316775 v -26.06146 l -2.6665,-0.57309 v 27.20764 z"
           inkscape:transform-center-x="-1.33325"
           inkscape:transform-center-y="13.60382" /><path
           id="path1923"
           style="fill:#c8beb7;stroke:#000000;stroke-width:0.499999;paint-order:fill stroke markers;stop-color:#000000"
           d="m 400.28119,-12.802089 0.81249,-24.90306 -2.64642,-0.659226 -0.84983,26.0476 z"
           inkscape:transform-center-x="-4.4146251"
           inkscape:transform-center-y="13.61075" /><path
           id="path1925"
           style="fill:#c8beb7;stroke:#000000;stroke-width:0.499999;paint-order:fill stroke markers;stop-color:#000000"
           d="m 405.20568,-13.563963 -1.41558,-23.727942 -2.69642,-0.413244 1.48383,24.872087 z"
           inkscape:transform-center-x="-8.2187502"
           inkscape:transform-center-y="13.68222" /><path
           id="path1927"
           style="fill:#c8beb7;stroke:#000000;stroke-width:0.499999;paint-order:fill stroke markers;stop-color:#000000"
           d="m 407.89755,-14.00267 1.13414,-22.595495 -2.63442,-0.706043 -1.19159,23.740245 z"
           inkscape:transform-center-x="-12.187755"
           inkscape:transform-center-y="13.51724" /><path
           id="path1929"
           style="fill:#c8beb7;stroke:#000000;stroke-width:0.499999;paint-order:fill stroke markers;stop-color:#000000"
           d="m 413.93625,-14.934404 -2.1935,-21.36649 -2.71106,-0.297271 2.31046,22.505653 z"
           inkscape:transform-center-x="-16.55304"
           inkscape:transform-center-y="13.605987" /><path
           id="path1931"
           style="fill:#c8beb7;stroke:#000000;stroke-width:0.499999;paint-order:fill stroke markers;stop-color:#000000"
           d="m 416.64972,-15.214492 2.20794,-20.212373 -2.58901,-0.859315 -2.3324,21.351776 z"
           inkscape:transform-center-x="-21.466026"
           inkscape:transform-center-y="13.341033" /><path
           id="path1933"
           style="fill:#c8beb7;stroke:#000000;stroke-width:0.499999;paint-order:fill stroke markers;stop-color:#000000"
           d="m 425.15592,-16.508597 -3.57179,-18.852083 -2.72647,-0.06618 3.78496,19.977216 z"
           inkscape:transform-center-x="-27.075861"
           inkscape:transform-center-y="13.513073" /><path
           id="path1935"
           style="fill:#c8beb7;stroke:#000000;stroke-width:0.499999;paint-order:fill stroke markers;stop-color:#000000"
           d="m 427.94572,-16.456714 3.63185,-17.67193 -2.49654,-1.098158 -3.86259,18.794645 z"
           inkscape:transform-center-x="-33.467076"
           inkscape:transform-center-y="13.121846" /><path
           id="path1937"
           style="fill:#c8beb7;stroke:#000000;stroke-width:0.499999;paint-order:fill stroke markers;stop-color:#000000"
           d="m 442.69359,-20.392389 -8.52419,-14.587063 -2.59183,0.850808 9.10247,15.576658 z"
           inkscape:transform-center-x="-42.204651"
           inkscape:transform-center-y="12.185606" /><path
           id="path1939"
           style="fill:#c8beb7;stroke:#000000;stroke-width:0.499999;paint-order:fill stroke markers;stop-color:#000000"
           d="m 455.46492,-30.900878 -1.62636,-2.189297 -11.14497,12.697786 2.38176,1.328644 z"
           inkscape:transform-center-x="-54.148327"
           inkscape:transform-center-y="12.874365" /></g><g
         id="g2184"
         transform="rotate(-90,482.98407,-65.793495)"><path
           id="path2160"
           style="fill:#c8beb7;stroke:#000000;stroke-width:0.499999;paint-order:fill stroke markers;stop-color:#000000"
           d="m 417.95694,-66.69486 h -28.35383 l -0.57309,2.66703 h 29.50001 z" /><path
           id="path2162"
           style="fill:#c8beb7;stroke:#000000;stroke-width:0.499999;paint-order:fill stroke markers;stop-color:#000000"
           d="m 418.53003,-64.028095 h 27.20764 l 0.57309,-2.6665 h -28.35383 z" /><path
           id="path2164"
           style="fill:#c8beb7;stroke:#000000;stroke-width:0.499999;paint-order:fill stroke markers;stop-color:#000000"
           d="m 472.37222,-66.694595 h -26.06146 l -0.57309,2.6665 h 27.20764 z" /><path
           id="path2166"
           style="fill:#c8beb7;stroke:#000000;stroke-width:0.499999;paint-order:fill stroke markers;stop-color:#000000"
           d="m 481.42399,-66.694744 h -9.05164 l 0.57257,2.666504 h 8.89714 c 0.003,-0.03278 0.006,-0.06604 0.007,-0.09974 10e-4,-0.03893 6.7e-4,-0.07856 -0.002,-0.118856 -0.002,-0.0403 -0.006,-0.08116 -0.0119,-0.12299 -0.003,-0.01772 -0.007,-0.03498 -0.0129,-0.05168 -0.006,-0.01669 -0.0137,-0.03278 -0.0227,-0.04857 -0.009,-0.01579 -0.0196,-0.03097 -0.031,-0.04599 -0.0114,-0.01502 -0.0235,-0.03006 -0.0367,-0.04444 -0.0132,-0.01439 -0.0274,-0.02849 -0.0419,-0.04237 -0.0145,-0.01388 -0.0292,-0.02732 -0.0444,-0.04082 -0.0304,-0.02701 -0.0621,-0.05327 -0.092,-0.07958 -0.0299,-0.02631 -0.0583,-0.05241 -0.0832,-0.07906 -0.0124,-0.01333 -0.0238,-0.02721 -0.0341,-0.04082 -0.0104,-0.01362 -0.0197,-0.02731 -0.0274,-0.04134 -0.008,-0.01403 -0.0136,-0.02831 -0.0181,-0.04289 -0.004,-0.01458 -0.008,-0.02918 -0.008,-0.04444 -7.1e-4,-0.01526 10e-4,-0.03095 0.005,-0.04703 0.004,-0.01608 0.01,-0.03259 0.0181,-0.04961 0.003,-0.0057 0.006,-0.01113 0.01,-0.01602 0.004,-0.0049 0.008,-0.0091 0.0129,-0.01344 0.009,-0.0087 0.0204,-0.01651 0.031,-0.02429 0.0106,-0.0078 0.0211,-0.01562 0.0305,-0.02429 0.005,-0.0043 0.009,-0.0091 0.0129,-0.01395 0.004,-0.0049 0.007,-0.0098 0.0103,-0.0155 0.002,-0.004 0.002,-0.0086 0.002,-0.01344 -6.2e-4,-0.0048 -0.002,-0.01006 -0.004,-0.01499 -10e-4,-0.0049 -0.003,-0.0096 -0.003,-0.01395 -3e-5,-0.0044 10e-4,-0.0082 0.005,-0.01137 0.005,-0.005 0.0104,-0.0092 0.0165,-0.0124 0.006,-0.0032 0.0127,-0.0053 0.0196,-0.0072 0.0139,-0.0038 0.0293,-0.0055 0.0444,-0.0072 0.0152,-0.0017 0.0301,-0.0034 0.0439,-0.0072 0.007,-0.0019 0.0135,-0.0046 0.0196,-0.0078 0.006,-0.0032 0.012,-0.0069 0.0171,-0.01189 0.007,-0.0067 0.0157,-0.01884 0.0264,-0.03462 0.0107,-0.01579 0.0229,-0.03567 0.0362,-0.05788 0.0266,-0.04442 0.057,-0.09862 0.0863,-0.152962 0.0293,-0.05435 0.0574,-0.108696 0.0791,-0.151929 0.0217,-0.04323 0.0371,-0.07573 0.0408,-0.08682 0.006,-0.01888 0.0113,-0.03609 0.0155,-0.05219 0.004,-0.01611 0.008,-0.03088 0.01,-0.04444 0.002,-0.01356 0.004,-0.02596 0.004,-0.03721 4.9e-4,-0.01125 1.1e-4,-0.02133 -0.001,-0.03049 -10e-4,-0.0092 -0.003,-0.0175 -0.006,-0.0248 -0.003,-0.0073 -0.006,-0.01343 -0.01,-0.01912 -0.004,-0.0057 -0.008,-0.01069 -0.0134,-0.01499 -0.005,-0.0043 -0.0109,-0.0082 -0.0171,-0.01137 -0.0122,-0.0063 -0.0265,-0.01042 -0.0419,-0.01344 -0.0154,-0.003 -0.0318,-0.0046 -0.0491,-0.0062 -0.0173,-0.0016 -0.0353,-0.0031 -0.0532,-0.0052 -0.0179,-0.0021 -0.0358,-0.005 -0.0532,-0.0093 -0.0324,-0.0081 -0.0569,-0.01434 -0.0749,-0.01964 -0.018,-0.0053 -0.0294,-0.0096 -0.0367,-0.01292 -0.007,-0.0034 -0.0101,-0.006 -0.0103,-0.0083 -1.9e-4,-0.0023 0.002,-0.0046 0.005,-0.0067 0.003,-0.0021 0.007,-0.0044 0.01,-0.0072 10e-4,-0.0014 0.002,-0.0029 0.003,-0.0047 6.2e-4,-0.0018 0.001,-0.0035 5.2e-4,-0.0057 -6.3e-4,-0.0022 -0.002,-0.005 -0.005,-0.0078 -0.002,-0.0028 -0.005,-0.0059 -0.01,-0.0093 -0.009,-0.0069 -0.0229,-0.01508 -0.0434,-0.02532 -0.0127,-0.0063 -0.027,-0.01034 -0.0413,-0.01344 -0.0144,-0.0031 -0.0289,-0.0051 -0.0434,-0.0078 -0.0145,-0.0026 -0.0288,-0.0059 -0.0419,-0.01085 -0.007,-0.0025 -0.0127,-0.0052 -0.0186,-0.0088 -0.006,-0.0036 -0.011,-0.0079 -0.016,-0.01292 -0.003,-0.0027 -0.005,-0.0083 -0.007,-0.01602 -0.002,-0.0077 -0.003,-0.0175 -0.004,-0.02946 -0.002,-0.02392 -0.002,-0.05591 -5.2e-4,-0.09302 10e-4,-0.0371 0.004,-0.07901 0.007,-0.124024 0.003,-0.04502 0.008,-0.0929 0.0124,-0.14056 0.003,-0.03382 0.007,-0.06117 0.0103,-0.09405 z" /><ellipse
           style="fill:#241f1c;stroke:#000000;stroke-width:0.499999;paint-order:fill stroke markers;stop-color:#000000"
           id="path2309"
           cx="485.79181"
           cy="-65.361488"
           rx="0.86018425"
           ry="0.79162574" /><ellipse
           style="fill:#241f1c;stroke:#000000;stroke-width:0.499999;paint-order:fill stroke markers;stop-color:#000000"
           id="ellipse2363"
           cx="489.07126"
           cy="-65.361488"
           rx="0.86018425"
           ry="0.79162574" /><ellipse
           style="fill:#241f1c;stroke:#000000;stroke-width:0.499999;paint-order:fill stroke markers;stop-color:#000000"
           id="ellipse2365"
           cx="492.35071"
           cy="-65.361488"
           rx="0.86018425"
           ry="0.79162574" /></g><path
         id="rect707-4"
         style="fill:#c8beb7;stroke:#000000;stroke-width:0.499999;paint-order:fill stroke markers;stop-color:#000000"
         d="m 359.57569,-3.7800187 h 15.75 l 6.875,31.9999997 h -29.5 z"
         sodipodi:nodetypes="ccccc" /></g></g></svg>
