<?xml version="1.0" encoding="UTF-8"?>
<svg id="Layer_2" data-name="Layer 2" xmlns="http://www.w3.org/2000/svg" viewBox="0 0 915.84 131.12">
  <defs>
    <style>
      .cls-1 {
        fill: #f7eee0;
      }

      .cls-2 {
        fill: #f4ebdd;
      }
    </style>
  </defs>
  <g id="callouts">
    <path class="cls-1" d="M813.14,96.87c-12.95,4.77-26.76,8.87-39.78,12.16-3.3.91-6.34,1.47-9.35,2.12-.75.16-1.5.32-2.24.48-.74.16-1.49.23-2.23.35-1.48.22-2.93.43-4.36.64-.72.11-1.42.21-2.13.32-.7.08-1.41.12-2.1.18-1.39.12-2.75.23-4.07.34-2.65.3-5.2.25-7.58.34-10.69-.21-17.23-1.43-23.66-2.87-1.6-.37-3.21-.73-4.87-1.11-1.66-.44-3.38-.9-5.22-1.38-3.69-.9-7.85-2.18-13.03-3.61-8.87-2.59-21.42-7.39-36.26-13.94-14.86-6.49-32.04-14.57-50.76-22.43-27.46-11.51-53.57-21.05-79.28-27.93-17.86-5.53-36.24-10.22-54.3-13.34-4.54-.79-9.17-1.38-13.77-2.01-4.61-.55-9.21-.93-13.69-1.37-1.12-.12-2.24-.2-3.34-.25-1.1-.06-2.2-.12-3.28-.18-2.17-.13-4.3-.25-6.39-.38-4.18-.26-8.17-.53-11.89-.83-15.26-.84-29.15-1.67-43.31-1.47-1.77,0-3.54,0-5.32,0-.89,0-1.78,0-2.67,0-.89.05-1.79.09-2.69.14-3.59.2-7.22.41-10.91.61-7.4.28-15,1.37-23.04,2.4-1.76.25-3.51.42-5.23.75-1.72.32-3.42.64-5.11.96-3.38.65-6.7,1.3-10,1.93-.82.16-1.64.33-2.46.49-.81.2-1.61.4-2.42.59-1.61.4-3.21.79-4.8,1.19-3.18.8-6.34,1.59-9.48,2.38-3.11.88-6.19,1.81-9.27,2.71-3.07.93-6.19,1.77-9.23,2.77-3.05.99-6.11,1.98-9.19,2.98-1.54.5-3.09.99-4.64,1.49-1.54.52-3.08,1.04-4.63,1.57-14.35,4.54-29,9.61-45.14,14.61-2.37.61-4.67,1.21-6.92,1.79-2.25.58-4.44,1.16-6.6,1.62-4.31.97-8.43,1.9-12.45,2.81-4.03.82-7.97,1.49-11.86,2.24-1.95.36-3.89.72-5.84,1.09-1.96.27-3.92.55-5.89.83-3.94.56-7.92,1.12-12.03,1.7-4.07.39-8.26.9-12.66,1.1-8.79.54-18.42.68-29.37-.21-2.13-.21-4.25-.35-6.32-.6-2.07-.26-4.12-.52-6.14-.78-2.01-.33-3.99-.65-5.94-.97-1.95-.32-3.85-.75-5.74-1.11-7.52-1.57-14.51-3.48-20.94-5.59-12.88-4.18-23.45-9.22-31.93-13.65-8.47-4.48-14.82-8.44-19.31-10.98-4.5-2.55-7.14-3.68-8.19-2.76-.81.68.86,4.19,5.09,9.2,4.23,4.99,11.07,11.45,20.33,17.88,9.27,6.37,20.94,12.74,34.31,17.51,6.67,2.38,13.72,4.49,21.01,6.03,1.81.44,3.66.72,5.51,1.08l2.77.51c.93.16,1.86.27,2.79.41,1.87.26,3.74.54,5.62.76l5.65.53c14.15,1.23,28.86.6,42.41-1.11,3.42-.36,6.67-.96,9.87-1.51,3.19-.55,6.31-1.1,9.33-1.62,3.03-.47,5.9-1.21,8.67-1.81,2.77-.63,5.42-1.24,7.93-1.81,3.75-.68,7.27-1.61,10.72-2.38,3.44-.81,6.78-1.53,10.02-2.3,3.22-.81,6.36-1.61,9.47-2.39,3.11-.77,6.17-1.53,9.18-2.36,6.04-1.62,12.08-3.21,18.24-4.95,6.16-1.73,12.55-3.53,19.45-5.47,7.38-2.11,14.71-4.2,21.98-6.28,3.63-.99,7.25-1.97,10.86-2.95l2.7-.75c.9-.24,1.81-.43,2.71-.65,1.81-.43,3.61-.85,5.41-1.28,14.37-3.57,28.8-5.78,43.08-6.85.6-.05,1.18-.1,1.76-.14.58-.04,1.16-.04,1.73-.06,1.14-.03,2.25-.06,3.34-.09,2.18-.05,4.25-.1,6.24-.14,1.99-.04,3.9-.07,5.74-.11,1.84-.03,3.61-.08,5.34.02,6.89.26,12.98.49,19.32.73,6.34.47,12.92.99,20.81,1.4.99.05,1.99.1,3.02.16,1.03.07,2.08.19,3.16.29,2.15.19,4.41.4,6.77.61,4.74.41,9.93.83,15.73,1.26,13.69,1.39,26.26,3.25,38.6,5.68,12.31,2.54,24.39,5.55,37.01,9.38,14.55,4.83,29.03,10.33,44.38,16.58,15.37,6.24,31.6,13.28,49.87,21,.63.26,16.65,6.97,17.28,7.24,8.7,3.65,14.36,5.53,18.96,6.8,9.94,3.49,18.17,5.92,27.43,8.24,11.81,3.42,24,6.33,36.59,8.14,12.58,1.81,25.57,2.46,38.57,1.41l4.78-.29c.8-.03,1.59-.13,2.38-.23l2.38-.3c1.59-.21,3.18-.42,4.77-.62l1.19-.16,1.18-.24,2.36-.48c1.24-.26,2.5-.52,3.78-.78,1.28-.26,2.57-.53,3.79-.86,2.48-.63,5-1.28,7.56-1.94,2.54-.72,5.12-1.45,7.72-2.18,2.6-.74,5.19-1.59,7.81-2.39,3.34-.94,6.58-2.02,10-3.06,1.69-.57,3.42-1.16,5.22-1.76.9-.3,1.81-.61,2.74-.93.92-.34,1.86-.68,2.83-1.03,17.37-6.28,32.44-13.65,45.01-21.14,12.59-7.48,22.66-15.11,30.31-21.92,7.66-6.81,12.91-12.77,16.08-17.08,1.59-2.16,2.66-3.89,3.28-5.19.31-.62.5-1.2.62-1.64.11-.46.13-.87-.03-1.18-.12-.24-.46-.34-1.09-.27-.34.04-.61.11-.99.22-.38.11-.79.27-1.2.45-1.73.74-3.94,2.04-6.62,3.75-5.36,3.43-12.65,8.49-21.67,14.05-9.01,5.57-19.71,11.66-31.59,17.4-11.85,5.78-24.83,11.24-38.11,16.05Z"/>
    <g>
      <g>
        <path class="cls-2" d="M6.36,7.18c-2.34-.16-5.14,2.37-4.04,4.9.48,1.11,1.74,2.31,2.95,2.5,1.62.26,3.33-.9,3.93-2.35.88-2.18-.47-4.88-2.83-5.04Z"/>
        <path class="cls-2" d="M43.09,33.16c-.71-1.96-3.65-3.05-5.24-1.41-.7.73-1.25,2.09-1.02,3.11.29,1.39,1.81,2.42,3.18,2.43,2.07.02,3.78-2.14,3.07-4.13Z"/>
        <path class="cls-2" d="M19.26,25.55c1.56,1.52,4.85,1.08,5.42-1.16.26-.99.08-2.43-.58-3.21-.88-1.06-2.63-1.3-3.87-.71-1.85.87-2.57,3.58-.98,5.08Z"/>
        <path class="cls-2" d="M16.09,14.95c-1.58-1.63-4.56-.86-5.83.92-1.7,2.41,1.09,5.05,3.55,5.08.09,0,.18,0,.27,0,.62-.03,1.16-.27,1.58-.73,1.23-1.35,1.79-3.9.42-5.27Z"/>
        <path class="cls-2" d="M27.33,27.49c-.95,2.13.95,4.66,3.14,5.01,2.91.5,4.02-3.03,3.16-5.24l-.1-.24c-.26-.55-.67-.94-1.23-1.14-1.64-.62-4.15-.21-4.96,1.62Z"/>
      </g>
      <g>
        <path class="cls-2" d="M47.52,34.43c-2.3.65-3.97,4.02-2.12,5.99.81.87,2.36,1.6,3.57,1.36,1.61-.29,2.85-1.94,2.95-3.51.07-1.17-.46-2.29-1.29-3.03-.83-.74-1.94-1.14-3.11-.81Z"/>
        <path class="cls-2" d="M90.61,48.11c-1.23-1.7-4.38-1.87-5.43.17-.46.9-.59,2.36-.08,3.27.69,1.2,2.43,1.77,3.75,1.39,1.98-.57,3.02-3.13,1.76-4.83Z"/>
        <path class="cls-2" d="M65.6,47.83c1.95.92,4.94-.42,4.82-2.75-.05-1.02-.64-2.36-1.51-2.9-1.17-.72-2.92-.41-3.91.5-1.49,1.37-1.37,4.2.6,5.16Z"/>
        <path class="cls-2" d="M59.34,38.68c-2.03-1.07-4.63.62-5.26,2.71-.85,2.81,2.61,4.41,4.95,3.72l.26-.09c.59-.23,1.02-.63,1.29-1.2.76-1.68.49-4.21-1.23-5.14Z"/>
        <path class="cls-2" d="M73.87,47.26c-.27,2.32,2.28,4.15,4.46,3.88,2.94-.41,2.97-4.1,1.5-5.94l-.17-.2c-.41-.43-.91-.72-1.51-.76-1.76-.12-4.04,1.03-4.27,3.01Z"/>
      </g>
      <g>
        <path class="cls-2" d="M95.23,48.07c-2.02,1.29-2.67,4.99-.34,6.34,1.02.59,2.71.84,3.79.32,1.45-.69,2.2-2.68,1.85-4.19-.53-2.27-3.25-3.78-5.3-2.47Z"/>
        <path class="cls-2" d="M140.53,49.81c-1.62-1.35-4.73-.79-5.23,1.47-.22,1,.02,2.44.75,3.18.97,1,2.79,1.14,3.97.46,1.78-1.01,2.14-3.8.51-5.11Z"/>
        <path class="cls-2" d="M116.3,55.97c2.12.36,4.65-1.74,3.91-3.95-.32-.97-1.25-2.1-2.23-2.39-1.32-.38-2.93.4-3.64,1.53-1.07,1.72-.18,4.42,1.96,4.8Z"/>
        <path class="cls-2" d="M107.79,48.89c-2.25-.5-4.28,1.81-4.3,4-.03,2.92,3.71,3.62,5.77,2.22l.22-.16c.5-.38.81-.88.91-1.5.28-1.81-.68-4.22-2.6-4.57Z"/>
        <path class="cls-2" d="M124.12,53.25c.35,2.31,3.27,3.35,5.31,2.54,2.73-1.09,1.82-4.68-.09-6.12l-.22-.15c-.51-.33-1.07-.45-1.66-.33-1.73.36-3.64,2.09-3.34,4.06Z"/>
      </g>
      <g>
        <path class="cls-2" d="M145.01,48.6c-1.66,1.73-1.37,5.48,1.21,6.23,1.13.33,2.83.17,3.75-.59,1.23-1.03,1.49-3.13.79-4.52-1.06-2.05-4.08-2.89-5.75-1.12Z"/>
        <path class="cls-2" d="M190.08,41.25c-1.8-1.06-4.81.03-4.94,2.35-.06,1.02.41,2.4,1.24,3.02,1.11.83,2.9.66,3.96-.22,1.58-1.31,1.57-4.08-.25-5.15Z"/>
        <path class="cls-2" d="M167.3,51.57c1.07.02,2.12-.64,2.76-1.56.64-.91.86-2.06.3-3.07-.5-.89-1.63-1.8-2.66-1.87-1.39-.15-2.83.87-3.29,2.16-.69,1.91.73,4.33,2.9,4.34Z"/>
        <path class="cls-2" d="M157.48,46.34c-2.32.06-3.78,2.8-3.3,4.94.65,2.87,4.38,2.57,6.09.84l.18-.2c.41-.47.6-1.02.57-1.65-.12-1.83-1.57-3.99-3.54-3.93Z"/>
        <path class="cls-2" d="M174.41,47.34c.77,2.21,3.81,2.74,5.66,1.6,2.48-1.54,1.01-4.93-1.13-6.01l-.24-.11c-.56-.24-1.14-.26-1.71-.04-1.66.65-3.23,2.68-2.58,4.57Z"/>
      </g>
      <g>
        <path class="cls-2" d="M194.37,39.45c-1.42,1.94-.59,5.6,2.04,6.02,1.16.19,2.8-.19,3.61-1.07,1.09-1.18,1.1-3.24.22-4.56-1.31-1.97-4.44-2.35-5.88-.39Z"/>
        <path class="cls-2" d="M238.67,27.53c-1.87-.95-4.84.33-4.8,2.64.02,1.02.59,2.36,1.46,2.93,1.17.76,2.93.49,3.92-.44,1.48-1.39,1.31-4.16-.58-5.12Z"/>
        <path class="cls-2" d="M216.88,39.76c2.11-.25,3.88-3.02,2.55-4.91-.59-.84-1.81-1.63-2.85-1.61-1.39.03-2.72,1.21-3.04,2.54-.48,1.99,1.2,4.22,3.34,3.98Z"/>
        <path class="cls-2" d="M206.54,35.71c-2.31.34-3.43,3.23-2.69,5.29,1,2.77,4.64,2.05,6.14.12l.16-.22c.35-.52.48-1.09.37-1.7-.32-1.81-2.01-3.78-3.97-3.49Z"/>
        <path class="cls-2" d="M223.51,34.87c.98,2.13,4.04,2.39,5.77,1.08,2.32-1.75.59-5.01-1.65-5.89l-.25-.09c-.59-.19-1.16-.16-1.71.12-1.61.81-2.99,2.97-2.16,4.78Z"/>
      </g>
      <g>
        <path class="cls-2" d="M242.87,25.48c-1.32,2.02-.27,5.62,2.36,5.9,1.16.12,2.76-.35,3.52-1.27,1.02-1.23.95-3.3.02-4.57-1.39-1.91-4.56-2.1-5.9-.05Z"/>
        <path class="cls-2" d="M287.45,13.51c-1.82-1.04-4.89.09-4.94,2.4-.03,1.02.49,2.38,1.33,2.99,1.13.82,2.9.64,3.92-.24,1.54-1.31,1.53-4.09-.31-5.14Z"/>
        <path class="cls-2" d="M265.36,25.11c2.09-.24,3.88-2.96,2.56-4.88-.58-.84-1.81-1.65-2.86-1.64-1.41.01-2.75,1.22-3.06,2.55-.46,2,1.24,4.2,3.36,3.97Z"/>
        <path class="cls-2" d="M254.98,21.24c-2.32.4-3.37,3.31-2.56,5.34,1.09,2.73,4.68,1.94,6.12-.01l.15-.22c.34-.52.46-1.1.34-1.71-.35-1.8-2.07-3.74-4.05-3.4Z"/>
        <path class="cls-2" d="M272.01,20.32c.95,2.15,3.97,2.46,5.71,1.18,2.35-1.69.74-5.01-1.48-5.94l-.25-.09c-.58-.2-1.16-.17-1.72.1-1.64.79-3.07,2.93-2.26,4.76Z"/>
      </g>
      <g>
        <path class="cls-2" d="M291.78,11.66c-1.46,1.96-.61,5.62,1.97,6.03,1.13.16,2.76-.14,3.58-.99,1.1-1.14,1.19-3.2.36-4.55-1.23-1.99-4.45-2.51-5.91-.49Z"/>
        <path class="cls-2" d="M337.48,4.24c-1.68-1.27-4.88-.55-5.21,1.73-.15,1,.2,2.42.96,3.14,1.02.96,2.79,1.01,3.92.27,1.69-1.1,2.03-3.85.33-5.14Z"/>
        <path class="cls-2" d="M314.23,13.2c2.09,0,4.15-2.51,3.05-4.56-.49-.9-1.63-1.84-2.68-1.95-1.41-.14-2.88.92-3.31,2.2-.66,1.92.83,4.31,2.95,4.3Z"/>
        <path class="cls-2" d="M304.27,8.38c-2.36.21-3.66,3.02-3.01,5.12.87,2.81,4.48,2.33,6.08.5l.17-.21c.38-.49.55-1.06.49-1.68-.18-1.83-1.72-3.9-3.73-3.73Z"/>
        <path class="cls-2" d="M321.34,9.17c.71,2.24,3.66,2.88,5.53,1.8,2.51-1.45,1.33-4.91-.78-6.07l-.24-.12c-.56-.26-1.14-.3-1.73-.09-1.73.6-3.39,2.58-2.79,4.48Z"/>
      </g>
      <g>
        <path class="cls-2" d="M342.02,2.98c-1.7,1.75-1.31,5.48,1.19,6.23,1.1.33,2.75.16,3.66-.61,1.23-1.04,1.58-3.09.94-4.51-.96-2.12-4.07-2.88-5.79-1.11Z"/>
        <path class="cls-2" d="M388.29,1.36c-1.51-1.43-4.77-1.05-5.38,1.18-.27.98-.11,2.43.56,3.22.9,1.06,2.65,1.29,3.86.67,1.81-.92,2.49-3.63.96-5.08Z"/>
        <path class="cls-2" d="M364.09,7.38c2.07.2,4.44-2.08,3.61-4.24-.37-.95-1.38-2-2.4-2.21-1.38-.28-2.96.62-3.57,1.86-.9,1.85.26,4.38,2.36,4.59Z"/>
        <path class="cls-2" d="M354.83,1.3c-2.38-.14-4.02,2.46-3.65,4.62.5,2.91,4.14,2.95,5.97,1.37l.2-.18c.44-.43.68-.96.7-1.59.06-1.83-1.2-4.11-3.22-4.23Z"/>
        <path class="cls-2" d="M371.65,4.22c.42,2.32,3.27,3.4,5.26,2.62,2.68-1.05,1.94-4.66,0-6.12l-.22-.16c-.52-.34-1.09-.47-1.7-.35-1.79.34-3.69,2.04-3.34,4.01Z"/>
      </g>
      <g>
        <path class="cls-2" d="M392.94.66c-1.89,1.48-1.97,5.23.43,6.35,1.06.49,2.71.58,3.72-.05,1.35-.84,1.94-2.82,1.46-4.32-.71-2.25-3.69-3.47-5.61-1.98Z"/>
        <path class="cls-2" d="M439.05,4.13c-1.37-1.57-4.63-1.5-5.47.66-.37.95-.34,2.41.24,3.26.79,1.14,2.52,1.54,3.78,1.05,1.89-.74,2.82-3.37,1.44-4.96Z"/>
        <path class="cls-2" d="M414.35,7.56c2.05.44,4.64-1.43,4.04-3.71-.26-1-1.15-2.19-2.14-2.55-1.33-.49-3.01.3-3.74,1.45-1.1,1.75-.23,4.38,1.84,4.8Z"/>
        <path class="cls-2" d="M405.83.58c-2.34-.38-4.28,2.04-4.16,4.23.16,2.94,3.78,3.35,5.78,1.97l.22-.16c.49-.39.79-.89.88-1.51.26-1.82-.73-4.21-2.72-4.53Z"/>
        <path class="cls-2" d="M422.21,5.37c.17,2.35,2.9,3.7,4.97,3.11,2.78-.79,2.4-4.44.62-6.09l-.2-.18c-.48-.39-1.03-.57-1.65-.52-1.81.16-3.88,1.67-3.73,3.67Z"/>
      </g>
      <g>
        <path class="cls-2" d="M443.75,3.86c-2.03,1.31-2.45,5.03-.17,6.36,1.01.58,2.64.81,3.7.27,1.42-.72,2.2-2.64,1.88-4.17-.48-2.3-3.35-3.77-5.4-2.45Z"/>
        <path class="cls-2" d="M489.28,12.2c-1.17-1.75-4.42-2.11-5.49-.08-.48.9-.62,2.35-.14,3.27.65,1.24,2.3,1.87,3.62,1.54,1.96-.48,3.2-2.97,2.02-4.74Z"/>
        <path class="cls-2" d="M464.36,12.89c1.98.65,4.77-1.06,4.43-3.34-.15-1.02-.92-2.26-1.87-2.69-1.29-.58-3.03-.04-3.88,1.03-1.27,1.61-.68,4.34,1.33,5Z"/>
        <path class="cls-2" d="M456.62,4.93c-2.29-.64-4.47,1.64-4.56,3.82-.13,2.93,3.43,3.65,5.55,2.55l.23-.13c.52-.33.87-.79,1.02-1.4.45-1.78-.3-4.27-2.24-4.83Z"/>
        <path class="cls-2" d="M472.42,11.45c-.09,2.35,2.47,3.98,4.59,3.61,2.85-.49,2.89-4.16,1.3-5.98l-.18-.2c-.44-.44-.97-.67-1.59-.68-1.83-.03-4.05,1.25-4.12,3.25Z"/>
      </g>
      <g>
        <path class="cls-2" d="M493.99,12.49c-2.18,1.1-3.06,4.75-.94,6.27.93.7,2.53,1.13,3.64.72,1.5-.54,2.5-2.35,2.36-3.92-.21-2.34-2.86-4.18-5.07-3.08Z"/>
        <path class="cls-2" d="M538.25,25.91c-.98-1.86-4.17-2.55-5.45-.63-.57.84-.87,2.27-.48,3.24.52,1.3,2.1,2.09,3.44,1.91,2-.28,3.48-2.63,2.49-4.51Z"/>
        <path class="cls-2" d="M513.39,23.9c1.9.88,4.86-.5,4.77-2.81-.04-1.02-.66-2.35-1.56-2.89-1.21-.72-3-.39-3.96.58-1.45,1.45-1.18,4.23.74,5.12Z"/>
        <path class="cls-2" d="M506.62,15.09c-2.21-.86-4.63,1.1-4.98,3.26-.48,2.92,2.99,4.02,5.22,3.16l.25-.11c.56-.26.96-.68,1.18-1.27.65-1.71.21-4.29-1.67-5.05Z"/>
        <path class="cls-2" d="M521.57,23.37c-.35,2.32,2.03,4.22,4.17,4.09,2.89-.18,3.32-3.82,1.94-5.8l-.16-.22c-.38-.48-.89-.78-1.5-.85-1.81-.23-4.16.8-4.45,2.78Z"/>
      </g>
      <g>
        <path class="cls-2" d="M542.89,26.69c-2.27.86-3.51,4.39-1.56,6.16.86.79,2.42,1.36,3.57,1.07,1.55-.39,2.72-2.1,2.73-3.67.02-2.35-2.45-4.4-4.74-3.55Z"/>
        <path class="cls-2" d="M585.81,43.71c-.85-1.92-3.98-2.8-5.4-.98-.62.8-1.02,2.21-.7,3.19.43,1.32,1.97,2.22,3.32,2.12,2.02-.15,3.64-2.39,2.78-4.34Z"/>
        <path class="cls-2" d="M561.17,39.83c1.82,1.03,4.88-.03,4.98-2.37.04-1.02-.45-2.41-1.29-3.04-1.14-.83-2.95-.64-3.99.24-1.57,1.32-1.54,4.11.3,5.16Z"/>
        <path class="cls-2" d="M555.19,30.49c-2.09-1.11-4.7.65-5.25,2.76-.38,1.42.27,2.5,1.31,3.14,1.03.65,2.44.86,3.6.52l.26-.09c.58-.21,1.02-.6,1.29-1.16.8-1.65.58-4.24-1.2-5.17Z"/>
        <path class="cls-2" d="M569.36,39.99c-.53,2.29,1.7,4.36,3.86,4.39,2.89.07,3.58-3.55,2.37-5.64l-.14-.23c-.35-.51-.82-.84-1.43-.96-1.78-.36-4.21.49-4.66,2.44Z"/>
      </g>
      <g>
        <path class="cls-2" d="M590.37,44.8c-2.31.72-3.78,4.17-1.92,6.05.82.83,2.35,1.49,3.52,1.26,1.57-.31,2.84-1.95,2.93-3.52.15-2.34-2.19-4.51-4.53-3.79Z"/>
        <path class="cls-2" d="M632.55,63.24c-.84-1.92-3.93-2.84-5.37-1.03-.64.8-1.05,2.19-.75,3.18.42,1.33,1.95,2.25,3.31,2.17,2.03-.12,3.66-2.37,2.81-4.32Z"/>
        <path class="cls-2" d="M607.99,58.82c1.79,1.12,4.9.12,5.07-2.19.08-1.02-.37-2.42-1.19-3.07-1.1-.87-2.9-.76-3.98.08-1.62,1.26-1.71,4.05.1,5.18Z"/>
        <path class="cls-2" d="M602.41,49.23c-2.04-1.17-4.7.41-5.37,2.49-.9,2.81,2.38,4.48,4.73,3.89l.26-.07c.59-.19,1.05-.56,1.35-1.11.87-1.61.77-4.21-.97-5.21Z"/>
        <path class="cls-2" d="M616.19,59.24c-.6,2.27,1.59,4.41,3.75,4.5,2.9.12,3.65-3.48,2.49-5.59l-.14-.23c-.33-.52-.8-.86-1.4-1-1.76-.4-4.2.38-4.71,2.32Z"/>
      </g>
      <g>
        <path class="cls-2" d="M637.09,64.33c-2.3.73-3.79,4.18-1.92,6.05.82.83,2.37,1.48,3.54,1.24,1.57-.32,2.82-1.97,2.9-3.54.12-2.35-2.2-4.5-4.53-3.76Z"/>
        <path class="cls-2" d="M679.78,80.94c-.99-1.85-4.11-2.5-5.42-.59-.57.84-.89,2.27-.5,3.23.52,1.29,2.14,2.09,3.5,1.9,2.02-.29,3.43-2.67,2.42-4.54Z"/>
        <path class="cls-2" d="M654.98,78.02c1.85,1.05,4.92-.07,4.99-2.4.03-1.02-.47-2.4-1.31-3.01-1.13-.82-2.91-.63-3.97.25-1.58,1.32-1.58,4.1.29,5.16Z"/>
        <path class="cls-2" d="M649.12,68.6c-2.05-1.12-4.68.52-5.32,2.61-.86,2.82,2.48,4.43,4.83,3.79l.26-.08c.59-.2,1.04-.58,1.32-1.14.83-1.64.66-4.23-1.08-5.18Z"/>
        <path class="cls-2" d="M663.21,78.1c-.48,2.29,1.85,4.3,4.03,4.27,2.92-.05,3.41-3.71,2.14-5.73l-.15-.22c-.36-.5-.84-.81-1.45-.91-1.77-.29-4.16.64-4.57,2.6Z"/>
      </g>
      <g>
        <path class="cls-2" d="M684.37,81.59c-2.21.97-3.38,4.53-1.31,6.21.91.74,2.54,1.23,3.68.88,1.54-.47,2.59-2.25,2.49-3.83-.14-2.36-2.64-4.24-4.87-3.26Z"/>
        <path class="cls-2" d="M728.76,91.07c-1.38-1.48-4.51-1.54-5.39.6-.38.94-.39,2.4.2,3.27.79,1.14,2.56,1.68,3.85,1.12,1.93-.78,2.74-3.43,1.34-4.99Z"/>
        <path class="cls-2" d="M703.84,92.9c2.01.77,4.86-.8,4.54-3.12-.14-1.02-.85-2.31-1.76-2.79-1.23-.64-2.95-.19-3.85.84-1.36,1.54-.95,4.29,1.08,5.07Z"/>
        <path class="cls-2" d="M696.71,84.42c-2.15-.85-4.55,1.11-4.94,3.26-.52,2.89,3.05,4.09,5.3,3.16l.25-.11c.56-.28.95-.71,1.15-1.3.59-1.73.07-4.29-1.76-5.01Z"/>
        <path class="cls-2" d="M712.02,91.61c-.07,2.34,2.62,3.93,4.76,3.52,2.89-.65,2.62-4.33.99-6.04l-.19-.19c-.44-.43-.97-.65-1.57-.64-1.76.02-3.94,1.36-4,3.35Z"/>
      </g>
      <g>
        <path class="cls-2" d="M733.34,90.61c-1.89,1.43-2.21,5.17.24,6.35.54.26,1.23.42,1.92.44.69-.02,1.38-.18,1.9-.5,1.39-.88,1.93-2.88,1.44-4.37-.75-2.22-3.58-3.31-5.49-1.93Z"/>
        <path class="cls-2" d="M778.24,86.49c-1.81-1.06-4.82,0-4.94,2.32-.05,1.02.42,2.4,1.25,3.02,1.12.83,2.92.67,3.97-.2,1.58-1.3,1.55-4.06-.28-5.14Z"/>
        <path class="cls-2" d="M755.14,96.22c2.17.07,4.4-2.35,3.37-4.44-.45-.92-1.51-1.91-2.52-2.07-1.35-.21-2.83.8-3.4,2-.42.92-.34,2.01.13,2.9.47.89,1.33,1.59,2.41,1.61Z"/>
        <path class="cls-2" d="M745.86,90.17c-1.14-.05-2.14.48-2.85,1.33-.7.86-1.11,2.02-1,3.11.14,1.47,1.15,2.27,2.38,2.53,1.23.22,2.66-.18,3.61-.96l.21-.18c.46-.43.71-.96.74-1.59.06-1.83-1.15-4.12-3.09-4.25Z"/>
        <path class="cls-2" d="M762.55,92.48c.68,2.27,3.74,2.8,5.64,1.68,2.54-1.52,1.05-4.91-1.04-6.03l-.24-.12c-.55-.25-1.11-.28-1.68-.06-1.64.63-3.26,2.65-2.69,4.53Z"/>
      </g>
      <g>
        <path class="cls-2" d="M782.51,84.67c-1.4,1.96-.55,5.62,2.09,5.99,1.16.17,2.8-.24,3.6-1.14,1.07-1.2,1.06-3.26.17-4.57-1.33-1.95-4.45-2.28-5.86-.29Z"/>
        <path class="cls-2" d="M826.13,71.17c-1.94-.8-4.76.68-4.56,2.98.09,1.02.75,2.32,1.66,2.81,1.22.67,2.98.25,3.91-.75,1.38-1.51.95-4.24-1.01-5.04Z"/>
        <path class="cls-2" d="M805.03,84.55c2.12-.29,3.8-3.15,2.4-4.99-.62-.82-1.86-1.56-2.9-1.52-1.39.05-2.67,1.29-2.95,2.63-.42,2,1.31,4.19,3.45,3.88Z"/>
        <path class="cls-2" d="M794.6,80.78c-2.3.36-3.37,3.26-2.61,5.31,1.03,2.76,4.7,1.99,6.16.05l.16-.22c.34-.52.46-1.1.33-1.71-.36-1.79-2.09-3.72-4.05-3.43Z"/>
        <path class="cls-2" d="M811.51,79.44c1.07,2.1,4.17,2.22,5.83.79,2.23-1.9.3-5.04-1.97-5.79l-.26-.08c-.59-.15-1.16-.09-1.69.22-1.54.91-2.84,3.08-1.92,4.87Z"/>
      </g>
      <g>
        <path class="cls-2" d="M830.09,68.74c-1.1,2.13.27,5.63,2.94,5.63,1.17,0,2.75-.62,3.41-1.64.88-1.36.55-3.41-.51-4.56-1.59-1.7-4.72-1.57-5.83.57Z"/>
        <path class="cls-2" d="M870.92,48.52c-2.05-.45-4.55,1.51-3.97,3.72.26.98,1.13,2.15,2.12,2.49,1.33.46,2.98-.27,3.72-1.42,1.1-1.73.2-4.34-1.87-4.79Z"/>
        <path class="cls-2" d="M852.32,65.22c2.05-.63,3.26-3.71,1.58-5.3-.74-.71-2.08-1.24-3.1-1.04-1.36.27-2.43,1.7-2.49,3.07-.1,2.05,1.95,3.93,4.02,3.28Z"/>
        <path class="cls-2" d="M841.44,63.11c-2.19.74-2.84,3.72-1.77,5.64,1.45,2.59,4.96,1.26,6.1-.9l.12-.24c.26-.57.29-1.15.07-1.74-.64-1.72-2.64-3.37-4.52-2.76Z"/>
        <path class="cls-2" d="M857.91,59.14c1.41,1.91,4.46,1.46,5.88-.19,1.9-2.23-.54-5-2.9-5.39l-.26-.03c-.61-.06-1.16.09-1.63.48-1.37,1.13-2.27,3.53-1.08,5.13Z"/>
      </g>
      <g>
        <path class="cls-2" d="M874.39,45.45c-.7,2.29,1.25,5.49,3.89,5.02,1.17-.2,2.59-1.14,3.05-2.24.63-1.49-.06-3.44-1.32-4.38-1.9-1.41-4.91-.69-5.63,1.61Z"/>
        <path class="cls-2" d="M910.78,17.92c-2.15-.09-4.35,2.33-3.35,4.4.44.92,1.52,1.9,2.54,2.06,1.38.21,2.87-.77,3.37-1.99.73-1.8-.39-4.34-2.57-4.47Z"/>
        <path class="cls-2" d="M895.59,37.89c1.89-1.03,2.49-4.27.53-5.51-.86-.55-2.29-.82-3.25-.43-1.28.53-2.04,2.15-1.85,3.49.28,2.02,2.67,3.51,4.57,2.45Z"/>
        <path class="cls-2" d="M884.51,37.87c-2.02,1.12-2.1,4.17-.7,5.86,1.89,2.27,5.12.33,5.83-2.01l.07-.26c.15-.61.07-1.18-.26-1.72-.95-1.57-3.23-2.81-4.95-1.87Z"/>
        <path class="cls-2" d="M899.9,30.83c1.74,1.58,4.68.59,5.74-1.33,1.41-2.57-1.51-4.81-3.9-4.72l-.27.02c-.61.06-1.12.32-1.51.79-1.13,1.38-1.55,3.89-.07,5.23Z"/>
      </g>
    </g>
  </g>
</svg>