<?xml version="1.0" encoding="UTF-8"?><svg id="Layer_1" xmlns="http://www.w3.org/2000/svg" viewBox="0 0 710.18 617.63"><defs><style>.cls-1{fill:#fff;}.cls-1,.cls-2{stroke:#a03260;stroke-linecap:round;stroke-linejoin:round;stroke-width:25px;}.cls-2{fill:none;}</style></defs><path class="cls-1" d="M600.47,538.08l58.83,60.29c8.78,9.01,23.01,9.01,31.78,0,8.79-8.98,8.79-23.58,0-32.56l-58.83-60.31"/><path class="cls-2" d="M535.17,332.88c61.42,0,111.22,49.79,111.22,111.22s-49.8,111.22-111.22,111.22-111.22-49.79-111.22-111.22,49.79-111.22,111.22-111.22h0Z"/><path class="cls-2" d="M402.43,491.87c-14.96,0-29.3,6.84-39.88,17.42h0c-7.12,7.12-16.45,10.78-25.78,10.78s-18.66-3.66-25.78-10.78h0c-10.58-10.58-24.92-17.42-39.88-17.42H26.6c-7.79,0-14.1-6.31-14.1-14.1V26.6c0-7.79,6.31-14.1,14.1-14.1h244.52c14.96,0,29.3,5.94,39.88,16.52l25.78,25.78,25.78-25.78c10.58-10.58,24.92-16.52,39.88-16.52h244.52c7.79,0,14.1,6.31,14.1,14.1v338.38"/><line class="cls-2" x1="336.78" y1="46.5" x2="336.78" y2="435.47"/><line class="cls-2" x1="82.99" y1="119.39" x2="266.28" y2="119.39"/><line class="cls-2" x1="82.99" y1="203.99" x2="266.28" y2="203.99"/><line class="cls-2" x1="82.99" y1="288.58" x2="266.28" y2="288.58"/><line class="cls-2" x1="407.27" y1="119.39" x2="590.56" y2="119.39"/><line class="cls-2" x1="407.27" y1="203.99" x2="590.56" y2="203.99"/><line class="cls-2" x1="407.27" y1="288.58" x2="590.56" y2="288.58"/></svg>