<?xml version="1.0" encoding="UTF-8"?>
<svg id="Layer_1" data-name="Layer 1" xmlns="http://www.w3.org/2000/svg" viewBox="0 0 800 800">
  <defs>
    <style>
      .cls-1 {
        fill: none;
      }

      .cls-1, .cls-2 {
        stroke: #a03260;
        stroke-linecap: round;
        stroke-linejoin: round;
        stroke-width: 12px;
      }

      .cls-2 {
        fill: #fff;
      }
    </style>
  </defs>
  <g>
    <path class="cls-2" d="M645.42,627.43l58.83,60.29c8.78,9.01,23.01,9.01,31.78,0,8.79-8.98,8.79-23.58,0-32.56l-58.83-60.31"/>
    <path class="cls-1" d="M571.05,442.98c55.21,0,99.96,44.75,99.96,99.96"/>
    <path class="cls-1" d="M580.12,422.23c61.42,0,111.22,49.79,111.22,111.22s-49.8,111.22-111.22,111.22-111.22-49.79-111.22-111.22,49.79-111.22,111.22-111.22h0Z"/>
  </g>
  <g>
    <path class="cls-1" d="M447.39,581.22c-14.96,0-29.3,6.84-39.88,17.42h0c-7.12,7.12-16.45,10.78-25.78,10.78s-18.66-3.66-25.78-10.78h0c-10.58-10.58-24.92-17.42-39.88-17.42H71.55c-7.79,0-14.1-6.31-14.1-14.1V115.95c0-7.79,6.31-14.1,14.1-14.1h244.52c14.96,0,29.3,5.94,39.88,16.52l25.78,25.78,25.78-25.78c10.58-10.58,24.92-16.52,39.88-16.52h244.52c7.79,0,14.1,6.31,14.1,14.1v338.38"/>
    <line class="cls-1" x1="381.73" y1="135.85" x2="381.73" y2="524.82"/>
    <line class="cls-1" x1="127.95" y1="208.74" x2="311.24" y2="208.74"/>
    <line class="cls-1" x1="127.95" y1="293.34" x2="311.24" y2="293.34"/>
    <line class="cls-1" x1="127.95" y1="377.93" x2="311.24" y2="377.93"/>
    <line class="cls-1" x1="452.23" y1="208.74" x2="635.51" y2="208.74"/>
    <line class="cls-1" x1="452.23" y1="293.34" x2="635.51" y2="293.34"/>
    <line class="cls-1" x1="452.23" y1="377.93" x2="635.51" y2="377.93"/>
  </g>
</svg>