<?xml version="1.0" encoding="UTF-8"?>
<svg id="Layer_1" data-name="Layer 1" xmlns="http://www.w3.org/2000/svg" viewBox="0 0 800 800">
  <defs>
    <style>
      .cls-1 {
        stroke-width: 9px;
      }

      .cls-1, .cls-2 {
        fill: none;
        stroke: #522b6f;
        stroke-linecap: round;
        stroke-linejoin: round;
      }

      .cls-2 {
        stroke-width: 12px;
      }
    </style>
  </defs>
  <g>
    <path class="cls-2" d="M556.1,599.35l-109.21-1.42c-36.69-.48-29.53-49.23-.67-49.15l156.7.44c42.39.12,30.27-10,3.43-32.14-10.74-8.85-17.18-34.42-9.82-47.98,7.25-12.13,24.12-5.59,35.62,2.05l94.02,75.67c59.43,38.24,40.3,196.72-29.94,199.17l-99.71,3.48-45.1.13c-35.59.11-37.65-50.31-4.61-50.22l25.85.08"/>
    <path class="cls-2" d="M565.8,599.3l-33.68.59c-36.7.64-29.53,50.9-.67,50.63l33.91-.31"/>
    <path class="cls-2" d="M536.97,650.42c-36.75.9-29.53,49.49-.67,49.37l35.67-.15"/>
  </g>
  <line class="cls-1" x1="560.21" y1="314.99" x2="240.73" y2="314.99"/>
  <line class="cls-1" x1="560.21" y1="372.04" x2="240.73" y2="372.04"/>
  <line class="cls-1" x1="560.21" y1="429.08" x2="240.73" y2="429.08"/>
  <line class="cls-1" x1="560.21" y1="486.13" x2="240.73" y2="486.13"/>
  <g>
    <path class="cls-2" d="M244.25,197.43l109.21,1.42c36.69.48,29.53,49.23.67,49.15l-156.7-.44c-42.39-.12-30.27,10-3.43,32.14,10.74,8.85,17.18,34.42,9.82,47.98-7.25,12.13-24.12,5.59-35.62-2.05l-94.02-75.67C14.75,211.71,33.88,53.23,104.12,50.79l99.71-3.48,45.1-.13c35.59-.11,37.65,50.31,4.61,50.22l-25.85-.08"/>
    <path class="cls-2" d="M234.55,197.48l33.68-.59c36.7-.64,29.53-50.9.67-50.63l-33.91.31"/>
    <path class="cls-2" d="M263.39,146.36c36.75-.9,29.53-49.49.67-49.37l-35.67.15"/>
  </g>
  <path class="cls-2" d="M194.43,462.39v55.1c0,21.73,6.47,31.21,25.38,31.21h75.22"/>
  <path class="cls-2" d="M605.5,334.4v-55.1c0-21.73-6.47-31.21-25.38-31.21h-75.22"/>
</svg>