<?xml version="1.0" encoding="UTF-8"?><svg id="Layer_1" xmlns="http://www.w3.org/2000/svg" viewBox="0 0 747.74 727.43"><defs><style>.cls-1{fill:none;stroke:#522b6f;stroke-linecap:round;stroke-linejoin:round;stroke-width:25px;}</style></defs><path class="cls-1" d="M529.8,564.68l-109.21-1.42c-36.69-.48-29.53-49.23-.67-49.15l156.7.44c42.39.12,30.27-10,3.43-32.14-10.74-8.85-17.18-34.42-9.82-47.98,7.25-12.13,24.12-5.59,35.62,2.05l94.02,75.67c59.43,38.24,40.3,196.72-29.94,199.17l-99.71,3.48-45.1.13c-35.59.11-37.65-50.31-4.61-50.22l25.85.08"/><path class="cls-1" d="M539.5,564.63l-33.68.59c-36.7.64-29.53,50.9-.67,50.63l33.91-.31"/><path class="cls-1" d="M510.66,615.75c-36.75.9-29.53,49.49-.67,49.37l35.67-.15"/><line class="cls-1" x1="533.9" y1="280.31" x2="214.42" y2="280.31"/><line class="cls-1" x1="533.9" y1="337.36" x2="214.42" y2="337.36"/><line class="cls-1" x1="533.9" y1="394.41" x2="214.42" y2="394.41"/><line class="cls-1" x1="533.9" y1="451.45" x2="214.42" y2="451.45"/><path class="cls-1" d="M217.95,162.75l109.21,1.42c36.69.48,29.53,49.23.67,49.15l-156.7-.44c-42.39-.12-30.27,10-3.43,32.14,10.74,8.85,17.18,34.42,9.82,47.98-7.25,12.13-24.12,5.59-35.62-2.05l-94.02-75.67C-11.55,177.03,7.58,18.55,77.81,16.11l99.71-3.48,45.1-.13c35.59-.11,37.65,50.31,4.61,50.22l-25.85-.08"/><path class="cls-1" d="M208.24,162.8l33.68-.59c36.7-.64,29.53-50.9.67-50.63l-33.91.31"/><path class="cls-1" d="M237.08,111.68c36.75-.9,29.53-49.49.67-49.37l-35.67.15"/><path class="cls-1" d="M168.12,427.71v55.1c0,21.73,6.47,31.21,25.38,31.21h75.22"/><path class="cls-1" d="M579.19,299.72v-55.1c0-21.73-6.47-31.21-25.38-31.21h-75.22"/></svg>