<?xml version="1.0" encoding="UTF-8"?><svg id="Layer_1" xmlns="http://www.w3.org/2000/svg" viewBox="0 0 743.6 631.73"><defs><style>.cls-1{fill:#fff;}.cls-1,.cls-2{stroke:#ff9e38;stroke-linecap:round;stroke-linejoin:round;stroke-width:25px;}.cls-2{fill:none;}</style></defs><path class="cls-1" d="M497.51,490.16l113.26,116.07c16.9,17.34,44.31,17.34,61.18,0,16.93-17.29,16.93-45.39,0-62.67l-113.26-116.1"/><path class="cls-2" d="M304.41,211.9c0,42.96,29.72,72.89,66.38,72.89s66.38-29.93,66.38-72.89c0-83.88-132.75-81.32-132.75,0h0Z"/><path class="cls-2" d="M234.34,472.83v-76.1c0-36.91,30.19-67.11,67.11-67.11h138.68c36.91,0,67.11,30.3,67.11,67.11v76.1"/><line class="cls-2" x1="302.04" y1="505.92" x2="302.04" y2="404.68"/><line class="cls-2" x1="439.55" y1="404.68" x2="439.55" y2="505.92"/><path class="cls-2" d="M74.82,68.97c0,39.16,27.09,66.44,60.5,66.44s60.5-27.28,60.5-66.44c0-76.46-121.01-74.13-121.01,0h0Z"/><path class="cls-2" d="M12.5,311.71v-69.37c0-33.65,27.53-61.17,61.17-61.17h61.7"/><line class="cls-2" x1="74.21" y1="314.21" x2="74.21" y2="238.54"/><path class="cls-2" d="M371.79,95.13c118.25,0,214.11,95.86,214.11,214.11s-95.86,214.11-214.11,214.11-214.11-95.85-214.11-214.11,95.86-214.11,214.11-214.11h0Z"/><path class="cls-2" d="M668.79,68.97c0-74.13-121.01-76.46-121.01,0,0,39.16,27.09,66.44,60.5,66.44,33.42,0,60.5-27.28,60.5-66.44h0Z"/><path class="cls-2" d="M608.23,181.16h61.7c33.65,0,61.17,27.52,61.17,61.17v69.37"/><line class="cls-2" x1="669.39" y1="238.54" x2="669.39" y2="314.21"/></svg>