<?xml version="1.0" encoding="UTF-8"?>
<svg id="Layer_1" data-name="Layer 1" xmlns="http://www.w3.org/2000/svg" viewBox="0 0 800 800">
  <defs>
    <style>
      .cls-1 {
        fill: #fff;
      }

      .cls-1, .cls-2, .cls-3 {
        stroke: #ff9e38;
        stroke-linecap: round;
        stroke-linejoin: round;
      }

      .cls-1, .cls-3 {
        stroke-width: 12px;
      }

      .cls-2 {
        stroke-width: 10px;
      }

      .cls-2, .cls-3 {
        fill: none;
      }
    </style>
  </defs>
  <path class="cls-1" d="M527.22,604.63l113.26,116.07c16.9,17.34,44.31,17.34,61.18,0,16.93-17.29,16.93-45.39,0-62.67l-113.26-116.1"/>
  <path class="cls-2" d="M401.5,232.62c106.28,0,192.43,86.16,192.43,192.43"/>
  <path class="cls-3" d="M334.12,326.37c0,42.96,29.72,72.89,66.38,72.89s66.38-29.93,66.38-72.89c0-83.88-132.75-81.32-132.75,0h0Z"/>
  <path class="cls-3" d="M264.05,587.3v-76.1c0-36.91,30.19-67.11,67.11-67.11h138.68c36.91,0,67.11,30.3,67.11,67.11v76.1"/>
  <line class="cls-3" x1="331.75" y1="620.39" x2="331.75" y2="519.15"/>
  <line class="cls-3" x1="469.26" y1="519.15" x2="469.26" y2="620.39"/>
  <g>
    <path class="cls-3" d="M104.53,183.44c0,39.16,27.09,66.44,60.5,66.44s60.5-27.28,60.5-66.44c0-76.46-121.01-74.13-121.01,0h0Z"/>
    <path class="cls-3" d="M42.21,426.18v-69.37c0-33.65,27.53-61.17,61.17-61.17h61.7"/>
    <line class="cls-3" x1="103.92" y1="428.68" x2="103.92" y2="353.01"/>
  </g>
  <path class="cls-3" d="M401.5,209.6c118.25,0,214.11,95.86,214.11,214.11s-95.86,214.11-214.11,214.11-214.11-95.85-214.11-214.11,95.86-214.11,214.11-214.11h0Z"/>
  <g>
    <path class="cls-3" d="M698.5,183.44c0-74.13-121.01-76.46-121.01,0,0,39.16,27.09,66.44,60.5,66.44,33.42,0,60.5-27.28,60.5-66.44h0Z"/>
    <path class="cls-3" d="M637.94,295.63h61.7c33.65,0,61.17,27.52,61.17,61.17v69.37"/>
    <line class="cls-3" x1="699.1" y1="353.01" x2="699.1" y2="428.68"/>
  </g>
</svg>