<?xml version="1.0" encoding="UTF-8"?><svg id="Layer_1" xmlns="http://www.w3.org/2000/svg" viewBox="0 0 630.79 726.47"><defs><style>.cls-1{fill:none;stroke:#ff5948;stroke-linecap:round;stroke-linejoin:round;stroke-width:25px;}</style></defs><line class="cls-1" x1="250.05" y1="713.97" x2="250.05" y2="606.2"/><path class="cls-1" d="M244.74,400.99c0,45.74,31.63,77.59,70.66,77.59s70.66-31.86,70.66-77.59c0-89.29-141.31-86.56-141.31,0h0Z"/><path class="cls-1" d="M170.15,678.75v-81.01c0-39.29,32.14-71.44,71.44-71.44h147.63c39.3,0,71.44,32.25,71.44,71.44v81.01"/><line class="cls-1" x1="388.59" y1="606.2" x2="388.59" y2="713.97"/><path class="cls-1" d="M78.84,384.19c0,41.69,28.83,70.73,64.41,70.73s64.41-29.04,64.41-70.73c0-81.39-128.81-78.91-128.81,0h0Z"/><path class="cls-1" d="M12.5,642.57v-73.84c0-35.82,29.3-65.12,65.12-65.12h65.68"/><line class="cls-1" x1="78.19" y1="645.24" x2="78.19" y2="564.69"/><path class="cls-1" d="M551.95,384.19c0-78.91-128.81-81.39-128.81,0,0,41.69,28.83,70.73,64.41,70.73,35.57,0,64.41-29.04,64.41-70.73h0Z"/><path class="cls-1" d="M487.49,503.61h65.68c35.82,0,65.12,29.3,65.12,65.12v73.84"/><line class="cls-1" x1="552.6" y1="564.69" x2="552.6" y2="645.24"/><path class="cls-1" d="M532.52,12.5H94.27c-19.4,0-35.12,15.72-35.12,35.12v155.22c0,19.4,15.72,35.12,35.12,35.12h56.02v59.96l47.97-59.96h91.14l23.99,59.96,23.99-59.96h91.14l47.97,59.96v-59.96h56.02c19.4,0,35.12-15.72,35.12-35.12V47.62c0-19.4-15.72-35.12-35.12-35.12Z"/></svg>