<?xml version="1.0" encoding="UTF-8"?>
<svg id="Layer_1" data-name="Layer 1" xmlns="http://www.w3.org/2000/svg" viewBox="0 0 800 800">
  <defs>
    <style>
      .cls-1 {
        fill: none;
        stroke: #ff5948;
        stroke-linecap: round;
        stroke-linejoin: round;
        stroke-width: 12px;
      }
    </style>
  </defs>
  <line class="cls-1" x1="335.75" y1="749.05" x2="335.75" y2="641.29"/>
  <g>
    <path class="cls-1" d="M330.43,436.07c0,45.74,31.63,77.59,70.66,77.59s70.66-31.86,70.66-77.59c0-89.29-141.31-86.56-141.31,0h0Z"/>
    <path class="cls-1" d="M255.84,713.83v-81.01c0-39.29,32.14-71.44,71.44-71.44h147.63c39.3,0,71.44,32.25,71.44,71.44v81.01"/>
    <line class="cls-1" x1="474.29" y1="641.29" x2="474.29" y2="749.05"/>
  </g>
  <g>
    <path class="cls-1" d="M164.54,419.27c0,41.69,28.83,70.73,64.41,70.73s64.41-29.04,64.41-70.73c0-81.39-128.81-78.91-128.81,0h0Z"/>
    <path class="cls-1" d="M98.2,677.66v-73.84c0-35.82,29.3-65.12,65.12-65.12h65.68"/>
    <line class="cls-1" x1="163.89" y1="680.33" x2="163.89" y2="599.77"/>
  </g>
  <g>
    <path class="cls-1" d="M637.65,419.27c0-78.91-128.81-81.39-128.81,0,0,41.69,28.83,70.73,64.41,70.73,35.57,0,64.41-29.04,64.41-70.73h0Z"/>
    <path class="cls-1" d="M573.19,538.7h65.68c35.82,0,65.12,29.3,65.12,65.12v73.84"/>
    <line class="cls-1" x1="638.3" y1="599.77" x2="638.3" y2="680.33"/>
  </g>
  <path class="cls-1" d="M618.22,47.58H179.97c-19.4,0-35.12,15.72-35.12,35.12v155.22c0,19.4,15.72,35.12,35.12,35.12h56.02v59.96l47.97-59.96h91.14l23.99,59.96,23.99-59.96h91.14l47.97,59.96v-59.96h56.02c19.4,0,35.12-15.72,35.12-35.12V82.7c0-19.4-15.72-35.12-35.12-35.12Z"/>
</svg>