<?xml version="1.0" encoding="UTF-8"?><svg id="Layer_1" xmlns="http://www.w3.org/2000/svg" viewBox="0 0 672.67 720.35"><defs><style>.cls-1{fill:none;stroke:#4cc9f0;stroke-linecap:round;stroke-linejoin:round;stroke-width:25px;}</style></defs><path class="cls-1" d="M12.5,223.51v430.4c0,32.55,14.92,47.25,41.44,47.25h235.62"/><path class="cls-1" d="M492.55,180.39v-116.31c0-35.91-10.69-51.58-41.94-51.58h-226.27"/><path class="cls-1" d="M12.5,182.61h122.85c32.89,0,47.26-16.7,47.26-47.25V12.5L12.5,182.61h0Z"/><line class="cls-1" x1="402.72" y1="115.34" x2="237.87" y2="115.34"/><line class="cls-1" x1="402.72" y1="190.31" x2="237.87" y2="190.31"/><line class="cls-1" x1="312.91" y1="265.28" x2="73" y2="265.28"/><line class="cls-1" x1="247.74" y1="340.25" x2="73" y2="340.25"/><line class="cls-1" x1="247.74" y1="415.22" x2="73" y2="415.22"/><path class="cls-1" d="M592.12,707.85h34.29c14.96,0,33.77-14.62,33.77-29.59v-118.68c-4.48-5.7-14.15-12.03-21.59-12.19-20.37-.45-23.62,23-55.68,23-29.16,0-52.8-23.64-52.8-52.8s20.64-52.8,52.8-52.8,35.97,25.62,55.68,26.12c10.26.25,18.92-5.91,21.59-14.55v-76.33c0-12.78-17.09-24.03-29.86-24.03h-87.52c-6.47-5.09-13.65-16.05-13.83-24.49-.51-23.1,26.09-26.79,26.09-63.16,0-33.08-26.81-59.89-59.89-59.89s-59.89,23.41-59.89,59.89,29.06,40.81,29.63,63.16c.29,11.64-6.7,21.46-16.5,24.49h-100.22c-8.67,0-17.97,10.15-17.97,18.82l-.02,37.91-.03,60.65c-5.09,6.47-16.05,13.65-24.48,13.83-23.1.51-26.79-26.09-63.16-26.09-33.08,0-59.89,26.81-59.89,59.89s23.41,59.89,59.89,59.89,40.81-29.06,63.16-29.63c11.64-.29,21.46,6.7,24.48,16.5l.03,57.27.03,34.52c0,15.56,12.73,28.29,28.29,28.29h77.31c8.64-2.66,14.8-11.32,14.55-21.59-.5-19.71-26.12-23.52-26.12-55.68s23.64-52.8,52.8-52.8,52.8,23.64,52.8,52.8c0,32.07-23.45,35.32-23,55.68.16,7.44,6.49,17.1,12.19,21.59h73.09Z"/></svg>